#!OML:ASF F:\VICON\USERDATA\INSTALL\rory3\rory3.ASF
:FULLY-SPECIFIED
:DEGREES
1
root 0.968863 18.0037 -30.4294 -3.61576 -6.01502 0.434147
lowerback 9.29442 1.86494 -1.2027
upperback 1.77498 2.36563 0.232338
thorax -3.42258 1.18588 0.630105
lowerneck -19.2649 -3.18208 -0.827418
upperneck 18.9812 -4.447 1.25981
head 9.19575 -1.99457 -0.0278415
rclavicle 8.91736e-015 -5.76476e-015
rhumerus -26.5495 -20.0754 -79.671
rradius 26.8137
rwrist 5.81617
rhand -19.0291 23.8742
rfingers 7.12502
rthumb 7.27704 -5.9807
lclavicle 8.91736e-015 -5.76476e-015
lhumerus -33.2807 7.53578 79.8177
lradius 22.6332
lwrist 4.3373
lhand -26.5288 23.1539
lfingers 7.12502
lthumb 0.0349646 53.1336
rfemur -17.3761 0.876505 21.7407
rtibia 76.2711
rfoot 1.1138 -8.10181
rtoes 5.09286
lfemur -10.4247 -0.094918 -24.4852
ltibia 25.8053
lfoot -9.46902 0.0218477
ltoes -0.87344
2
root 0.969963 18.0147 -30.2593 -3.61561 -5.75252 0.537689
lowerback 9.36682 1.19 -1.77701
upperback 0.767977 1.43455 0.829539
thorax -4.51968 0.750805 1.67453
lowerneck -15.317 -2.63165 -2.29574
upperneck 18.2805 -3.37673 1.43536
head 8.26741 -1.61333 0.467918
rclavicle -5.36097e-015 3.18055e-015
rhumerus -28.6378 -17.3954 -79.0355
rradius 26.8291
rwrist 5.34185
rhand -19.2424 23.6674
rfingers 7.12502
rthumb 7.07118 -6.1945
lclavicle -5.36097e-015 3.18055e-015
lhumerus -35.8766 8.77118 79.6676
lradius 23.2517
lwrist 4.28166
lhand -26.7339 22.0129
lfingers 7.12502
lthumb -0.163094 51.9926
rfemur -18.5611 0.56777 21.727
rtibia 76.2897
rfoot -0.427626 -8.72022
rtoes 6.56894
lfemur -9.71586 -0.233687 -24.6956
ltibia 25.6117
lfoot -10.2115 0.376453
ltoes -1.85415
3
root 0.971699 18.0176 -30.0928 -3.55278 -5.25986 0.455897
lowerback 9.59216 1.36018 -1.50203
upperback 1.70442 1.67329 0.542485
thorax -3.66366 0.848579 1.19673
lowerneck -19.6781 -3.00805 -1.20222
upperneck 19.241 -4.05059 1.06027
head 9.35963 -1.85504 0.0100129
rclavicle 1.55549e-014 -7.55382e-015
rhumerus -26.7828 -19.8009 -79.4502
rradius 26.3586
rwrist 5.69029
rhand -18.9757 23.988
rfingers 7.12502
rthumb 7.32856 -5.86507
lclavicle 1.55549e-014 -7.55382e-015
lhumerus -32.7059 7.27478 80.1609
lradius 22.8711
lwrist 4.56915
lhand -26.6216 21.0328
lfingers 7.12502
lthumb -0.0545778 51.0126
rfemur -19.7843 0.041115 21.928
rtibia 76.1404
rfoot -1.13934 -8.76519
rtoes 8.15194
lfemur -9.33391 -0.560137 -24.7173
ltibia 25.8847
lfoot -10.8481 0.475835
ltoes -2.02057
4
root 0.977 18.0041 -29.9282 -3.51169 -4.8284 0.458014
lowerback 9.62629 1.19142 -1.61202
upperback 1.0205 1.44362 0.69727
thorax -4.39388 0.747799 1.44076
lowerneck -16.7551 -3.0194 -1.49901
upperneck 18.3667 -4.00732 1.06936
head 8.54047 -1.88261 0.118718
rclavicle -1.83503e-014 4.77083e-015
rhumerus -28.7573 -19.3938 -78.6981
rradius 26.6098
rwrist 5.18007
rhand -18.6537 23.8762
rfingers 7.12502
rthumb 7.63943 -5.96583
lclavicle -1.83503e-014 4.77083e-015
lhumerus -33.9073 6.33838 80.3771
lradius 23.3793
lwrist 4.91519
lhand -26.4632 21.1418
lfingers 7.12502
lthumb 0.0983951 51.1216
rfemur -20.9739 -0.421901 21.9928
rtibia 75.9308
rfoot -2.07218 -8.62029
rtoes 8.50825
lfemur -8.91171 -0.755049 -24.8383
ltibia 26.0838
lfoot -11.171 0.261524
ltoes -0.634035
5
root 0.983901 17.9762 -29.7634 -3.44216 -4.46785 0.622314
lowerback 9.53674 1.12789 -1.62102
upperback 1.78927 1.35417 0.54361
thorax -3.53678 0.690326 1.30735
lowerneck -20.0782 -3.12181 -1.19712
upperneck 19.4466 -4.20619 1.04667
head 9.50501 -1.92387 -0.025034
rclavicle -1.65985e-014 3.97569e-015
rhumerus -27.3251 -20.1055 -79.3007
rradius 26.5246
rwrist 5.02979
rhand -18.7626 23.6416
rfingers 7.12502
rthumb 7.5343 -6.20424
lclavicle -1.65985e-014 3.97569e-015
lhumerus -31.6841 5.50037 80.7193
lradius 23.5506
lwrist 5.08846
lhand -26.6863 21.8733
lfingers 7.12502
lthumb -0.117072 51.853
rfemur -22.2668 -0.80768 21.8528
rtibia 75.6382
rfoot -3.42352 -8.60818
rtoes 8.44915
lfemur -8.55928 -0.88341 -25.1405
ltibia 26.346
lfoot -11.89 0.459601
ltoes -1.60822
6
root 0.987999 17.9737 -29.5978 -3.44079 -4.1366 0.565289
lowerback 9.44339 0.860606 -1.44487
upperback 1.52105 1.01868 0.560685
thorax -3.74889 0.525586 1.2672
lowerneck -18.5004 -3.04945 -1.43384
upperneck 19.0477 -4.0651 1.1175
head 9.08723 -1.88277 0.084844
rclavicle 2.39784e-015 1.61016e-014
rhumerus -28.2495 -19.5722 -79.2279
rradius 26.5451
rwrist 4.77032
rhand -18.7759 23.9561
rfingers 7.12502
rthumb 7.52151 -5.89012
lclavicle 2.39784e-015 1.61016e-014
lhumerus -32.1106 4.7666 80.7673
lradius 24.0175
lwrist 5.37635
lhand -27.0427 21.501
lfingers 7.12502
lthumb -0.461331 51.4802
rfemur -23.3367 -1.04375 22.0063
rtibia 75.0523
rfoot -4.70275 -8.68269
rtoes 9.13405
lfemur -8.05663 -0.902118 -25.1635
ltibia 26.5598
lfoot -12.392 0.363511
ltoes -0.631787
7
root 0.985921 17.9703 -29.4378 -3.46543 -3.82073 0.556728
lowerback 9.43642 0.395349 -1.6808
upperback 0.947758 0.390133 0.891341
thorax -4.32439 0.229586 1.82256
lowerneck -15.6259 -2.68089 -2.17803
upperneck 18.1558 -3.41537 1.2042
head 8.27498 -1.6454 0.363625
rclavicle -7.85199e-015 1.13307e-014
rhumerus -29.7076 -18.0299 -78.8414
rradius 26.6128
rwrist 4.48957
rhand -18.1378 24.6657
rfingers 7.12502
rthumb 8.13738 -5.15765
lclavicle -7.85199e-015 1.13307e-014
lhumerus -33.451 4.98452 80.8168
lradius 24.6068
lwrist 5.45372
lhand -27.431 20.0771
lfingers 7.12502
lthumb -0.836335 50.0552
rfemur -24.3134 -1.27273 22.1282
rtibia 74.309
rfoot -5.88274 -8.87908
rtoes 7.81274
lfemur -7.53026 -0.853654 -25.2103
ltibia 26.7231
lfoot -13.063 0.300293
ltoes -0.528679
8
root 0.984075 17.9642 -29.2737 -3.42043 -3.36077 0.614819
lowerback 9.73891 0.673958 -1.58329
upperback 1.65765 0.752696 0.560937
thorax -3.76384 0.394612 1.37715
lowerneck -19.4371 -3.04314 -1.15176
upperneck 19.3594 -4.12423 1.07774
head 9.35772 -1.88447 0.000316763
rclavicle -1.21631e-014 5.1684e-015
rhumerus -28.7613 -19.8111 -79.2151
rradius 26.7861
rwrist 4.30173
rhand -17.6788 24.9614
rfingers 7.12502
rthumb 8.58032 -4.84426
lclavicle -1.21631e-014 5.1684e-015
lhumerus -31.0183 2.7812 81.1877
lradius 24.8439
lwrist 5.80308
lhand -27.2587 19.4176
lfingers 7.12502
lthumb -0.669947 49.3963
rfemur -25.2757 -1.62051 22.1518
rtibia 73.3788
rfoot -6.83161 -9.23026
rtoes 6.65759
lfemur -7.03717 -1.03357 -25.3472
ltibia 26.8096
lfoot -13.6508 0.330896
ltoes -0.94153
9
root 0.983852 17.9495 -29.1136 -3.34518 -3.07537 0.772005
lowerback 9.78117 0.304247 -2.14095
upperback 0.990641 0.219819 1.0037
thorax -4.46687 0.155831 2.22201
lowerneck -16.8068 -2.83652 -2.11882
upperneck 18.7414 -3.60407 1.0947
head 8.68479 -1.73255 0.27511
rclavicle -5.19325e-015 -3.57812e-015
rhumerus -30.3325 -17.8569 -78.6583
rradius 27.0826
rwrist 3.77477
rhand -18.1532 24.3709
rfingers 7.12502
rthumb 8.12244 -5.45301
lclavicle -5.19325e-015 -3.57812e-015
lhumerus -32.4371 3.20207 81.4811
lradius 25.537
lwrist 5.89909
lhand -27.1828 19.6246
lfingers 7.12502
lthumb -0.596625 49.6035
rfemur -26.351 -1.77663 22.071
rtibia 72.3575
rfoot -7.20808 -9.52172
rtoes 7.16086
lfemur -6.62263 -1.02863 -25.5821
ltibia 26.9088
lfoot -13.9858 0.132612
ltoes 0.210993
10
root 0.979115 17.9286 -28.9507 -3.33406 -3.04894 0.939967
lowerback 9.72357 -0.357775 -3.18107
upperback 0.209133 -0.736759 1.79166
thorax -5.17803 -0.263281 3.77384
lowerneck -13.274 -2.14767 -3.52609
upperneck 17.7338 -2.39155 0.963199
head 7.71343 -1.28799 0.647929
rclavicle -7.95139e-016 9.54166e-015
rhumerus -31.8452 -14.3724 -78.3009
rradius 27.2965
rwrist 3.28906
rhand -18.8071 23.7636
rfingers 7.12502
rthumb 7.49133 -6.08373
lclavicle -7.95139e-016 9.54166e-015
lhumerus -34.5231 5.10409 81.5333
lradius 26.3307
lwrist 5.7549
lhand -27.2702 20.5851
lfingers 7.12502
lthumb -0.681036 50.5637
rfemur -27.3007 -1.74465 21.9972
rtibia 71.2115
rfoot -7.33182 -9.69327
rtoes 9.13414
lfemur -6.12237 -0.853426 -25.7937
ltibia 27.0527
lfoot -14.2198 -0.222561
ltoes 2.79619
11
root 0.973507 17.912 -28.7921 -3.2858 -2.753 1.14861
lowerback 10.0643 0.34806 -2.61623
upperback 1.50073 0.216764 0.876022
thorax -4.09317 0.150166 2.35715
lowerneck -19.2338 -2.95598 -1.60622
upperneck 19.23 -3.80159 0.79022
head 9.27545 -1.80358 0.0237375
rclavicle 5.76476e-015 -5.36719e-015
rhumerus -29.8324 -18.3433 -79.0399
rradius 27.3261
rwrist 3.82342
rhand -19.0385 23.5378
rfingers 7.12502
rthumb 7.26797 -6.31742
lclavicle 5.76476e-015 -5.36719e-015
lhumerus -30.2538 1.34598 81.8003
lradius 26.2694
lwrist 6.34799
lhand -27.5342 21.7146
lfingers 7.12502
lthumb -0.936032 51.6923
rfemur -28.2309 -1.97997 21.8675
rtibia 69.909
rfoot -7.76123 -9.82474
rtoes 10.1571
lfemur -5.68166 -0.931264 -26.0626
ltibia 27.1739
lfoot -15.2724 0.328786
ltoes 0.174867
12
root 0.969708 17.8976 -28.6367 -3.1886 -2.12425 1.2991
lowerback 10.5123 -0.126632 -3.11571
upperback 0.651997 -0.472559 1.20453
thorax -5.18323 -0.147803 3.08901
lowerneck -16.5963 -2.7287 -2.27975
upperneck 18.6829 -3.34138 0.746485
head 8.61944 -1.65944 0.219757
rclavicle -8.15017e-015 -5.96354e-015
rhumerus -31.4338 -16.7556 -78.5283
rradius 27.3083
rwrist 3.67915
rhand -18.9951 23.5047
rfingers 7.12502
rthumb 7.30992 -6.34907
lclavicle -8.15017e-015 -5.96354e-015
lhumerus -31.8556 1.60387 81.916
lradius 27.1039
lwrist 6.41835
lhand -27.337 22.3764
lfingers 7.12502
lthumb -0.74554 52.3549
rfemur -29.1429 -2.42073 21.7571
rtibia 68.3964
rfoot -8.97425 -9.5761
rtoes 8.2642
lfemur -5.26158 -1.28388 -26.2911
ltibia 27.2253
lfoot -15.6055 0.365254
ltoes 0.568911
13
root 0.968002 17.8832 -28.4743 -2.95177 -1.65359 1.4846
lowerback 10.3335 -0.163525 -3.12336
upperback 0.838437 -0.525188 1.01999
thorax -4.88493 -0.184052 2.9029
lowerneck -17.5307 -2.8404 -2.06198
upperneck 18.8606 -3.55671 0.854935
head 8.84897 -1.72742 0.179813
rclavicle -7.52897e-015 -5.1684e-015
rhumerus -31.2541 -17.2823 -78.6747
rradius 27.2562
rwrist 3.68511
rhand -19.0129 23.506
rfingers 7.12502
rthumb 7.29265 -6.34837
lclavicle -7.52897e-015 -5.1684e-015
lhumerus -30.8236 0.451768 81.9607
lradius 27.4659
lwrist 6.70251
lhand -27.392 21.763
lfingers 7.12502
lthumb -0.798705 51.7412
rfemur -30.1071 -2.66769 21.6156
rtibia 66.7028
rfoot -10.3829 -8.5611
rtoes 5.86112
lfemur -4.92286 -1.59234 -26.5489
ltibia 27.1852
lfoot -15.7656 0.0829321
ltoes 2.08601
14
root 0.964425 17.872 -28.3045 -2.89184 -1.5673 1.5365
lowerback 10.0416 -0.337777 -3.31113
upperback 0.788529 -0.761885 1.17247
thorax -4.75231 -0.297607 3.19819
lowerneck -16.6213 -2.65292 -2.47979
upperneck 18.4461 -3.25387 1.08449
head 8.55174 -1.59628 0.378308
rclavicle -1.39149e-015 7.15625e-015
rhumerus -31.7404 -16.6401 -78.5811
rradius 27.3822
rwrist 3.59087
rhand -18.5292 23.5968
rfingers 7.12502
rthumb 7.75957 -6.24081
lclavicle -1.39149e-015 7.15625e-015
lhumerus -30.8823 0.373018 81.9983
lradius 28.0739
lwrist 6.70856
lhand -27.9302 21.2836
lfingers 7.12502
lthumb -1.31849 51.2592
rfemur -30.7293 -2.59032 21.6101
rtibia 64.8117
rfoot -11.0871 -9.66563
rtoes 3.36295
lfemur -4.30549 -1.52892 -26.6417
ltibia 27.0841
lfoot -16.4238 -0.123511
ltoes 1.63587
15
root 0.960471 17.8573 -28.141 -2.97191 -1.65806 1.6182
lowerback 10.0766 -0.541255 -3.64276
upperback 0.462722 -1.06192 1.41725
thorax -5.07978 -0.423353 3.69023
lowerneck -14.5347 -2.44035 -2.96543
upperneck 17.6073 -2.88607 1.03912
head 7.89867 -1.47126 0.514395
rclavicle 4.69629e-015 -2.34566e-014
rhumerus -32.6791 -15.5014 -78.3428
rradius 27.448
rwrist 3.40213
rhand -18.3208 23.7364
rfingers 7.12502
rthumb 7.96071 -6.09365
lclavicle 4.69629e-015 -2.34566e-014
lhumerus -31.6132 0.695169 81.999
lradius 28.7348
lwrist 6.70979
lhand -28.3354 22.0833
lfingers 7.12502
lthumb -1.70981 52.0562
rfemur -31.1925 -2.37456 21.5731
rtibia 62.7777
rfoot -11.2843 -9.96979
rtoes 2.06362
lfemur -3.52639 -1.25335 -26.7543
ltibia 26.9387
lfoot -17.0279 -0.13209
ltoes 1.53041
